<svg version="1.1" id="accs_emblem" xmlns="http://www.w3.org/2000/svg" xmlns:xlink="http://www.w3.org/1999/xlink" x="0px" y="0px" viewBox="0 0 240 86" style="enable-background:new 0 0 240 86;" xml:space="preserve">
<style type="text/css">
	.st0{fill:#FFFFFF;}
	.st1{fill:#F7A800;}
	/*svg, path{
		color:white;
	}*/
</style>
<path class="st0" d="M32.2,43.8l4.4-14.2h0.1l4.1,14.2H32.2z M12.8,60.2H27l2.1-6.5h14.6l1.9,6.5h14.7l-16.7-46H29.8L12.8,60.2z"></path>
<path class="st0" d="M76.4,25.1H83c5.4,0,7,1.7,7,4.6c0,4.1-3.6,4.6-6.3,4.6h-7.4v-9.2H76.4z M104.1,50.4c-0.5-5.7-2.9-10-6.8-11.5
	c4.7-1.7,6.9-6.8,6.9-11.6c0-8.7-7-13.1-15-13.1h-27v46h14.2v-16h7.5c5.6,0,6,4.6,6.4,8.9v7.1H104L104.1,50.4z"></path>
<path class="st0" d="M118.7,25.9h-12.9V14.2h40V26h-12.9v34.3h-14.2V25.9z"></path>
<path class="st0" d="M21.6,77.1c-0.1,1.3-0.9,1.9-2,1.9c-0.9,0-1.5-0.6-1.5-1.2c0-0.8,0.5-1.1,1.6-1.3c0.6-0.1,1.3-0.3,1.9-0.6V77.1
	L21.6,77.1z M26.1,73.7c0-2.4,0-4.8-5.9-4.8c-2.9,0-6.2,0.6-6.4,4h4.4c0-0.5,0.3-1.2,1.8-1.2c0.8,0,1.5,0.3,1.5,1.1
	c0,0.8-0.6,1-1.3,1.1c-2.4,0.5-7,0.3-7,4.2c0,2.6,2,3.8,4.4,3.8c1.5,0,3-0.3,4-1.5h0.1c0,0.3,0,0.8,0.2,1.2h4.8
	c-0.5-0.8-0.6-1.8-0.6-2.8L26.1,73.7L26.1,73.7z"></path>
<path class="st0" d="M28.7,69.2h4.5v2l0,0c0.8-1.5,1.8-2.3,3.5-2.3c0.5,0,0.9,0.1,1.4,0.2v4.2c-0.5-0.2-0.9-0.3-1.9-0.3
	c-1.9,0-2.9,1.1-2.9,3.8v4.9h-4.7L28.7,69.2L28.7,69.2z"></path>
<path class="st0" d="M39.4,64.5h4.7v17.1h-4.7C39.4,81.6,39.4,64.5,39.4,64.5z"></path>
<path class="st0" d="M46.9,69.2h4.7v12.4h-4.7V69.2z M51.6,67.8h-4.7v-3.3h4.7V67.8z"></path>
<path class="st0" d="M54.3,69.2h4.6v1.6l0,0c0.9-1.2,2.1-1.9,4-1.9c2.2,0,4.2,1.4,4.2,4.2v8.5h-4.7v-6.5c0-1.4-0.2-2.4-1.6-2.4
	c-0.8,0-1.9,0.4-1.9,2.4v6.5h-4.7V69.2H54.3z"></path>
<path class="st0" d="M73.7,74.8c0-1.3,0.7-2.5,2-2.5c1.4,0,2.1,1.1,2.1,2.4c0,1.4-0.2,3.1-1.9,3.1C74.1,77.8,73.7,76.2,73.7,74.8z
	 M82.4,69.2h-4.7v1.5l0,0c-0.5-1.3-1.9-1.8-3.3-1.8c-3.5,0-5.4,2.7-5.4,5.9c0,3.3,1.6,6,5.3,6c1.4,0,2.6-0.6,3.3-1.7l0,0v1.1
	c0,1-0.3,2.8-1.9,2.8c-0.6,0-1.1-0.5-1.4-0.9c-0.1-0.1-0.2-0.3-0.3-0.4h-4.7c0.4,3.3,3.5,4.1,6.5,4.1c5.8,0,6.4-3.5,6.4-5.9
	L82.4,69.2L82.4,69.2z"></path>
<path class="st0" d="M90.5,69.2H93v2.9h-2.5v4.3c0,1.1,0.3,1.6,1.5,1.6c0.4,0,0.7,0,1.1-0.1v3.6c-1,0-2,0.1-3,0.1
	c-2,0-4.2-0.3-4.2-3.7V72h-2.2v-2.9h2.1v-3.8h4.7V69.2L90.5,69.2z"></path>
<path class="st0" d="M102.8,75.4c0,1.3-0.2,3.1-2,3.1s-2-1.8-2-3.1c0-1.3,0.2-3.1,2-3.1C102.5,72.3,102.8,74,102.8,75.4z
	 M107.5,75.4c0-3.4-2.1-6.5-6.7-6.5s-6.7,3.1-6.7,6.5c0,3.4,2.1,6.5,6.7,6.5S107.5,78.8,107.5,75.4z"></path>
<path class="st0" d="M109.6,69.2h4.6v1.6l0,0c0.9-1.2,2.1-1.9,4-1.9c2.2,0,4.2,1.4,4.2,4.2v8.5h-4.7v-6.5c0-1.4-0.2-2.4-1.6-2.4
	c-0.8,0-1.9,0.4-1.9,2.4v6.5h-4.7L109.6,69.2L109.6,69.2z"></path>
<path class="st0" d="M138.7,69.2h2.5v2.9h-2.5v4.3c0,1.1,0.3,1.6,1.5,1.6c0.4,0,0.7,0,1.1-0.1v3.6c-1,0-2,0.1-3,0.1
	c-2,0-4.2-0.3-4.2-3.7V72H132v-2.9h2.1v-3.8h4.7L138.7,69.2L138.7,69.2z"></path>
<path class="st0" d="M142.7,69.2h4.5v2l0,0c0.8-1.5,1.8-2.3,3.5-2.3c0.5,0,0.9,0.1,1.4,0.2v4.2c-0.5-0.2-0.9-0.3-1.9-0.3
	c-1.9,0-2.9,1.1-2.9,3.8v4.9h-4.7L142.7,69.2L142.7,69.2z"></path>
<path class="st0" d="M160.8,77.1c-0.1,1.3-0.9,1.9-2,1.9c-0.9,0-1.5-0.6-1.5-1.2c0-0.8,0.5-1.1,1.6-1.3c0.6-0.1,1.3-0.3,1.9-0.6
	V77.1L160.8,77.1z M165.4,73.7c0-2.4,0-4.8-5.9-4.8c-2.9,0-6.2,0.6-6.4,4h4.4c0-0.5,0.3-1.2,1.8-1.2c0.8,0,1.5,0.3,1.5,1.1
	c0,0.8-0.6,1-1.3,1.1c-2.4,0.5-7,0.3-7,4.2c0,2.6,2,3.8,4.4,3.8c1.5,0,3-0.3,4-1.5h0.1c0,0.3,0,0.8,0.2,1.2h4.8
	c-0.5-0.8-0.6-1.8-0.6-2.8V73.7z"></path>
<path class="st0" d="M167.9,69.2h4.6v1.6l0,0c0.9-1.2,2.2-1.9,4-1.9c2.2,0,4.2,1.4,4.2,4.2v8.5H176v-6.5c0-1.4-0.2-2.4-1.6-2.4
	c-0.8,0-1.9,0.4-1.9,2.4v6.5h-4.7L167.9,69.2L167.9,69.2z"></path>
<path class="st0" d="M190.5,72.8c0-0.4-0.2-0.7-0.5-0.9c-0.3-0.2-0.7-0.4-1.1-0.4c-0.7,0-1.4,0.1-1.4,1c0,0.4,0.3,0.5,0.5,0.6
	c0.8,0.3,2.6,0.4,4.2,1c1.6,0.5,3,1.4,3,3.5c0,3.4-3.3,4.4-6.3,4.4c-2.9,0-6.1-1.2-6.2-4.4h4.5c0,0.4,0.2,0.8,0.6,1.1
	c0.2,0.2,0.7,0.4,1.3,0.4s1.6-0.2,1.6-1c0-0.7-0.4-0.9-2.6-1.3c-3.6-0.6-5.1-1.8-5.1-3.9c0-3.1,3.4-3.9,5.8-3.9c2.7,0,5.9,0.7,6,3.9
	L190.5,72.8L190.5,72.8z"></path>
<path class="st0" d="M197.2,69.2h4.7v12.4h-4.7V69.2z M201.9,67.8h-4.7v-3.3h4.7V67.8z"></path>
<path class="st0" d="M210.3,69.2h2.5v2.9h-2.5v4.3c0,1.1,0.3,1.6,1.5,1.6c0.4,0,0.7,0,1.1-0.1v3.6c-1,0-2,0.1-3,0.1
	c-2,0-4.2-0.3-4.2-3.7V72h-2.1v-2.9h2.1v-3.8h4.7v3.9H210.3z"></path>
<path class="st1" d="M169.7,18.9h42.7v-4.8h-28.6C178.4,14.1,173.6,15.9,169.7,18.9z"></path>
<path class="st1" d="M205.1,49.2c-1,1.7-2.2,3.4-3.6,4.8h10.9v-4.8H205.1z"></path>
<path class="st1" d="M183.7,60.2c12.7,0,23-10.3,23-23.1c0-6.6-2.8-12.6-7.3-16.8h-8.6c6.5,2.8,11.1,9.3,11.1,16.8
	c0,10.1-8.2,18.2-18.3,18.2l0,0l0,0H155v4.8L183.7,60.2z"></path>
<path class="st1" d="M168,53.9h8.6c-6.5-2.8-11.1-9.3-11.1-16.8c0-3.9,1.2-7.6,3.4-10.6h-5.6c-1.6,3.2-2.6,6.7-2.6,10.6
	C160.7,43.8,163.5,49.7,168,53.9z"></path>
<path class="st1" d="M195.7,37.1c0,4.6-2.6,8.6-6.3,10.6h7.4c2.3-2.9,3.8-6.6,3.8-10.6c0-9.3-7.5-16.8-16.8-16.8h-28.6v4.8h28.6
	C190.4,25.1,195.7,30.5,195.7,37.1z"></path>
<path class="st1" d="M183.7,49.2c-6.6,0-12-5.4-12-12c0-4.6,2.5-8.5,6.3-10.6h-7.3c-2.3,2.9-3.7,6.6-3.7,10.6
	c0,9.3,7.5,16.8,16.8,16.8c4.6,0,8.7-1.8,11.7-4.8H183.7z"></path>
</svg>