<svg xmlns="http://www.w3.org/2000/svg" id="Layer_1" viewBox="0 0 292.37258 44.4448" fill="#00396f">
  <path d="m87.34028,12.6977l-1.0449,5.9126c-1.6611-.9096-4.0713-1.6372-6.0713-1.6372-2.4092,0-4.91308,1.0913-5.20408,3.4566-.709,5.7768,12.11918,3.0927,10.73438,14.372-.7363,6.0044-5.40238,9.6431-11.7207,9.6431-3.8652,0-7.0703-.90921-8.3838-1.3193l1.1689-6.1851c2.12022.8643,3.9415,1.9556,6.7149,1.9556,2.36332,0,5.334-1.1831,5.65232-3.7749.753-6.1402-12.11522-3.1387-10.72462-14.4639.1172-.9551.9219-9.0518,11.55862-9.0518,2.90918,0,4.666.501,7.32028,1.0923h0Z"></path>
  <path d="m87.98488,31.9609c.8613-7.0122,4.7636-12.3481,11.6347-12.3481,6.8701,0,9.4961,5.3359,8.6367,12.3481-.86128,7.01269-4.7988,12.3486-11.6689,12.3486-6.8711,0-9.4629-5.33591-8.6025-12.3486h0Zm5.74312,0c-.56352,4.5835.10738,8.312,3.35448,8.312s4.8672-3.7285,5.4317-8.312c.5615-4.5835-.1436-8.312-3.3907-8.312s-4.834,3.7285-5.39548,8.312h0Z"></path>
  <path d="m110.07858,35.24459l1.8701-15.22169h5.6055l-1.9775,16.1113c-.295,2.3946.413,3.8653,2.6699,3.8653,2.2558,0,3.3242-1.4707,3.6191-3.8653l1.9785-16.1113h5.6055l-1.8691,15.22169c-.72658,5.91851-4.4971,9.06491-9.8633,9.06491-5.3672,0-8.36428-3.1464-7.6387-9.06491h0Z"></path>
  <polygon points="129.32958 43.8994 132.26118 20.0229 138.82468 20.0229 143.731 36.5791 145.83248 20.0229 150.75438 20.0229 147.82468 43.8994 141.19188 43.8994 136.44088 26.625 134.25338 43.8994 129.32958 43.8994 129.32958 43.8994"></polygon>
  <path d="m150.87838,43.8994l2.9317-23.8765h8.4775c5.3672,0,10.2793,3.147,9.1738,12.1431-1.0117,8.2441-6.8066,11.7334-12.8242,11.7334h-7.7588Zm8.0244-19.7031l-1.9052,15.52929h1.7783c4.0664,0,6.2734-3.21539,6.8066-7.55959.60552-4.9258-.9014-7.9697-5.2431-7.9697h-1.4366Z"></path>
  <polygon points="175.10008 43.8994 178.29538 17.8828 171.38528 17.8828 172.09028 12.1523 192.25538 12.1523 191.55218 17.8828 184.64208 17.8828 181.44968 43.8994 175.10008 43.8994 175.10008 43.8994"></polygon>
  <path d="m188.25828,43.8994l2.9316-23.8765h8.752c3.9307,0,7.0664,1.7442,6.5244,6.1572-.1221.9922-.7422,4.9258-5.4697,5.8492,1.7109.2739,2.2763,1.2309,2.81642,4.0708l1.50288,7.7993h-5.87888l-1.06052-6.397c-.52348-3.2495-1.2764-3.2495-3.3272-3.2495l-1.1836,9.6465h-5.6074Zm7.8379-19.8404l-.7578,6.1573h1.7441c2.1543,0,3.459-1.4365,3.669-3.146.1201-.99271.06152-3.0113-2.9463-3.0113h-1.709Z"></path>
  <path d="m221.11178,43.8994l-.8144-5.3364h-7.48538l-2.29592,5.3364h-5.4004l10.86132-23.8765h6.15338l4.72562,23.8765h-5.74422Zm-1.4121-9.3726l-1.2422-9.9204-4.125,9.9204h5.3672Z"></path>
  <polygon points="227.85788 43.8994 230.78948 20.0229 237.354 20.0229 242.26028 36.5791 244.35988 20.0229 249.28368 20.0229 246.352 43.8994 239.72018 43.8994 234.97018 26.625 232.78078 43.8994 227.85788 43.8994 227.85788 43.8994"></polygon>
  <path d="m265.51608,20.43359l-.7842,4.44721c-1.249-.6845-3.0615-1.2319-4.5664-1.2319-1.81148,0-3.2802.8213-3.499,2.5996-.5332,4.3442,9.1162,2.3257,8.0742,10.80909-.55468,4.51511-4.4785,7.25191-9.2304,7.25191-2.90628,0-5.3184-.6845-6.3047-.9922l.8769-4.6518c1.5967.6499,2.9649,1.4707,5.0508,1.4707,1.7773,0,3.59572-.8897,3.8359-2.8394.5655-4.6176-9.1113-2.3598-8.0654-10.8769.0889-.7188,1.1094-6.8071,9.1074-6.8071,2.1885,0,3.50882.3759,5.5049.82079h0Z"></path>
  <polygon points="266.39888 43.8994 269.33058 20.0229 274.937 20.0229 272.00538 43.8994 266.39888 43.8994 266.39888 43.8994"></polygon>
  <polygon points="278.63918 43.8994 281.04148 24.3335 275.84518 24.3335 276.37348 20.0229 292.37258 20.0229 291.84418 24.3335 286.647 24.3335 284.24558 43.8994 278.63918 43.8994 278.63918 43.8994"></polygon>
  <path d="m30.94378,24.6074c3.3555,0,6.40822-2.71881,6.8204-6.07281.4111-3.35449-1.9727-6.07319-5.32818-6.07319-3.35352,0-3.75.0151-4.57222.0151-.8213,0-1.4063-.667-1.3037-1.4887.1005-.8208.8486-1.4878,1.66992-1.4878h31.62788l-1.291,10.5229h-17.5l-2.9238,23.8115H14.57518l2.36082-19.227h14.00778ZM61.02588,0l-.6035,4.9155h-31.6289c-3.3536,0-6.4073,2.7187-6.8194,6.0723-.41108,3.3545,1.9737,6.0727,5.3281,6.0727l4.5713-.0141c.8223,0,1.4063.666,1.3057,1.48819-.1006.82181-.8486,1.48781-1.6709,1.48781l-31.50828.0005L2.459,0h58.56688Z"></path>
</svg>