<svg data-name="Layer 1" xmlns="http://www.w3.org/2000/svg" viewBox="0 0 623.87 274.68"><path fill="#005daa" d="M0 141.28v19.69l12.13-.56v41.47h22.04v-41.47l12.13.56v-19.69H0zm407.53 0h22.02v41.16h18.5v19.44h-40.52v-60.6zm49.91 0h22.02v60.61h-22.02zm-10.21-95.22c.29-5-4.94-7.82-11.9-6.21-42.08 9.79-92.89 52.76-115 109.29v10.19c30.5-49.8 63.43-85.34 109.88-98 .63 12 6.6 16.29 16.11 16.25 15.71-.06 33.81-9.93 40.4-12.77 5.68 4.47 10.92.57 12.6-2.41s6.44-9.85-6.75-5.8-12.57 4.85-26.71 7.74c-21 4.31-19-10.88-18.63-18.28"/><path d="M285.24 274.68v-16.31C333.7 117 446.09 68.16 585.94 89.58v8.82c-151.5-2-238.82 36.57-300.7 176.28M423.26 32.66c7.16 1.73 14.7-4.1 16.87-13s-1.85-17.58-9-19.34-14.69 4.11-16.86 13 1.87 17.59 9 19.32M76.84 168.13h1.53c3.61 0 7.23-.57 7.23-5.06 0-4.67-3.3-5.23-7.07-5.23h-1.69ZM55.3 141.28h26.61c13.66 0 25.23 5.78 25.23 21.05 0 9.16-3.53 13-11.73 15.76v.48a15.18 15.18 0 0 1 3.7 3.62l13.19 19.69H86.89l-9.66-19.44h-.39v19.44H55.3Zm96.45 38.66-2.57-10.69c-.64-2.57-1.06-5.24-1.45-7.79h-.81l-4 18.48Zm-14.54 21.94H113.9l21-60.6h24.4l21.63 60.6h-23.31l-2-7.55H139Zm51.19-60.6h21.14l19.78 33.59h.68a91.16 91.16 0 0 1-1.83-15.42v-18.17h21.05v60.6h-21.09l-19.39-31.83h-.63a73.62 73.62 0 0 1 1.36 12.14v19.69H188.4Zm75.6 38.91 1.12.88c3.94 3 8.69 5.55 13.76 5.55 2.17 0 5.63-.9 5.63-3.62s-2.89-3-4.9-3.39l-4.44-.8c-8.6-1.53-15.83-6.59-15.83-16.06 0-14.4 13.1-22.46 26.28-22.46a36.11 36.11 0 0 1 19.21 5.32l-5.94 15.53c-3.79-2.58-8-4.58-12.79-4.58-1.92 0-4.73.71-4.73 3.21 0 2.24 2.74 2.56 4.44 3l5 1.11c9.35 2.1 16.09 7.09 16.09 17.38 0 14.46-13.19 21.61-26.29 21.61a54.42 54.42 0 0 1-23.32-5.55Z" fill="#005daa"/><path d="M492.55 141.28h21.14l19.78 33.59h.63a91.18 91.18 0 0 1-1.84-15.42v-18.17h21.08v60.6h-21.08l-19.38-31.83h-.64a71.56 71.56 0 0 1 1.37 12.14v19.69h-21.06Zm72.16 0h21.46l-.46 26.28h.46c.5-2.48 1.87-4.66 3.06-6.85l10.6-19.43h24l-19 29.51 21 31.09h-25.51l-10.44-18.32c-1.28-2.32-3.21-4.59-3.71-7.07h-.46l.46 25.39h-21.46Z" fill="#005daa"/></svg>
